<?xml version="1.0" encoding="utf-8"?>
<svg viewBox="3.404 0.681 40 40" fill="none" xmlns="http://www.w3.org/2000/svg">
    <path fill-rule="evenodd" clip-rule="evenodd"
          d="M26.395 12.553C26.3316 12.426 26.2419 12.314 26.1319 12.2244C26.0219 12.1347 25.8941 12.0696 25.7569 12.0331C25.6198 11.9967 25.4764 11.9899 25.3364 12.0132C25.1965 12.0364 25.063 12.0892 24.945 12.168C24.6 12.398 24.331 12.726 24.123 13.048C23.909 13.378 23.72 13.761 23.553 14.164C23.219 14.968 22.939 15.932 22.713 16.898C22.4397 18.0785 22.235 19.2738 22.1 20.478C21.6931 20.2157 21.3662 19.8466 21.155 19.411C20.827 18.731 20.757 17.877 20.757 16.757C20.757 16.5592 20.6983 16.3659 20.5884 16.2015C20.4785 16.0371 20.3224 15.909 20.1397 15.8333C19.957 15.7576 19.7559 15.7378 19.562 15.7764C19.368 15.815 19.1899 15.9102 19.05 16.05C18.3992 16.6994 17.883 17.471 17.5312 18.3205C17.1794 19.17 16.9989 20.0806 17 21C17.0001 22.1511 17.2841 23.2845 17.8267 24.2996C18.3694 25.3148 19.1541 26.1804 20.1113 26.8199C21.0684 27.4594 22.1685 27.853 23.3141 27.9658C24.4596 28.0786 25.6154 27.9071 26.6789 27.4666C27.7423 27.0261 28.6808 26.3301 29.4111 25.4403C30.1413 24.5504 30.6409 23.4943 30.8655 22.3653C31.0901 21.2363 31.0328 20.0693 30.6987 18.9677C30.3645 17.8662 29.7639 16.864 28.95 16.05C28.358 15.459 27.97 15.065 27.602 14.583C27.239 14.107 26.878 13.52 26.395 12.553ZM26.12 25.12C25.7005 25.539 25.1661 25.8243 24.5846 25.9399C24.003 26.0554 23.4002 25.996 22.8523 25.7691C22.3045 25.5423 21.8361 25.1582 21.5064 24.6653C21.1768 24.1725 21.0005 23.593 21 23C21 23 21.879 23.5 23.5 23.5C23.5 22.5 24 19.5 24.75 19C25.25 20 25.536 20.293 26.121 20.879C26.4 21.1572 26.6213 21.4878 26.7722 21.8518C26.923 22.2158 27.0005 22.606 27 23C27.0005 23.394 26.923 23.7842 26.7722 24.1482C26.6213 24.5122 26.4 24.8428 26.121 25.121L26.12 25.12Z"
          fill="#F76659"/>
</svg>
