<svg width="107" height="24" viewBox="0 0 107 24" fill="none" xmlns="http://www.w3.org/2000/svg">
<path fill-rule="evenodd" clip-rule="evenodd" d="M22.395 4.55298C22.3316 4.42601 22.2419 4.31399 22.1319 4.22436C22.0219 4.13473 21.8941 4.06954 21.7569 4.03312C21.6198 3.99671 21.4764 3.9899 21.3364 4.01315C21.1965 4.0364 21.063 4.08918 20.945 4.16798C20.6 4.39798 20.331 4.72598 20.123 5.04798C19.909 5.37798 19.72 5.76098 19.553 6.16398C19.219 6.96798 18.939 7.93198 18.713 8.89798C18.4397 10.0785 18.235 11.2738 18.1 12.478C17.6931 12.2157 17.3662 11.8466 17.155 11.411C16.827 10.731 16.757 9.87698 16.757 8.75698C16.757 8.55923 16.6983 8.36593 16.5884 8.20152C16.4785 8.03711 16.3224 7.90897 16.1397 7.8333C15.957 7.75763 15.7559 7.73783 15.562 7.7764C15.368 7.81496 15.1899 7.91017 15.05 8.04998C14.3992 8.69942 13.883 9.47102 13.5312 10.3205C13.1794 11.17 12.9989 12.0805 13 13C13.0001 14.1511 13.2841 15.2844 13.8267 16.2996C14.3694 17.3148 15.1541 18.1804 16.1113 18.8199C17.0684 19.4594 18.1685 19.853 19.3141 19.9658C20.4596 20.0786 21.6154 19.9071 22.6789 19.4666C23.7423 19.0261 24.6808 18.3301 25.4111 17.4403C26.1413 16.5504 26.6409 15.4942 26.8655 14.3652C27.0901 13.2362 27.0328 12.0693 26.6987 10.9677C26.3645 9.86616 25.7639 8.86399 24.95 8.04998C24.358 7.45898 23.97 7.06498 23.602 6.58298C23.239 6.10698 22.878 5.51998 22.395 4.55298V4.55298ZM22.12 17.12C21.7005 17.539 21.1661 17.8243 20.5846 17.9398C20.003 18.0554 19.4002 17.996 18.8523 17.7691C18.3045 17.5423 17.8361 17.1582 17.5064 16.6653C17.1768 16.1724 17.0005 15.5929 17 15C17 15 17.879 15.5 19.5 15.5C19.5 14.5 20 11.5 20.75 11C21.25 12 21.536 12.293 22.121 12.879C22.4 13.1572 22.6213 13.4878 22.7722 13.8517C22.923 14.2157 23.0005 14.606 23 15C23.0005 15.394 22.923 15.7842 22.7722 16.1482C22.6213 16.5122 22.4 16.8428 22.121 17.121L22.12 17.12Z" fill="#F76659"/>
<path d="M41.2912 19H43.6626V15.1009L45.1136 13.3878L49.0192 19H51.87L46.7628 11.7834L51.8253 5.90909H48.9297L43.8224 11.924H43.6626V5.90909H41.2912V19ZM54.9019 19L55.9822 15.772H60.9041L61.9907 19H64.522L59.9069 5.90909H56.9794L52.3707 19H54.9019ZM56.6214 13.8672L58.392 8.59375H58.4943L60.2649 13.8672H56.6214ZM65.9942 5.90909V19H68.2698V9.98722H68.3912L72.0091 18.9616H73.7094L77.3273 10.0064H77.4488V19H79.7243V5.90909H76.8224L72.936 15.3949H72.7826L68.8962 5.90909H65.9942ZM83.7358 19L84.8161 15.772H89.738L90.8246 19H93.3559L88.7408 5.90909H85.8132L81.2046 19H83.7358ZM85.4553 13.8672L87.2259 8.59375H87.3282L89.0988 13.8672H85.4553ZM97.1996 5.90909H94.8281V19H97.1996V5.90909Z" fill="#1A2024"/>
</svg>
